<svg width="961" height="667" viewBox="0 0 961 667" fill="none" xmlns="http://www.w3.org/2000/svg">
<g clip-path="url(#clip0_16_125)">
<path d="M2.67293 665.106C2.67293 665.106 -16.5476 460.646 54.4242 398.938C116.375 345.281 167.887 312.738 272.321 309.074C376.755 305.41 434.217 305.678 496.988 221.317C559.76 136.956 644.936 9.74994 739.37 5.83201C830.413 2.10578 886.017 37.429 937.072 285.401C988.127 533.373 933.63 661.136 931.925 663.203C930.732 664.65 2.67293 665.106 2.67293 665.106Z" fill="#F8F8FF"/>
<path d="M426.913 508.45C433.088 422.885 412.263 297.528 437.32 280.109C462.205 263.106 470.556 257.508 496.373 222.764C559.293 137.88 644.501 9.67642 739.155 5.73256C830.411 1.98166 886.144 37.5223 937.314 287.027C962.898 411.779 961.064 477.532 958.332 516.976C956.871 538.681 955.381 566.857 954.527 567.897C953.161 569.352 421.825 579.616 426.913 508.45Z" fill="#E9EDFC"/>
<path d="M216.503 231.274L207.006 665.881C206.991 669.012 213.792 668 215.491 668.008L225.685 668.055L226.014 231.945L286.659 234.314L261.176 51.1082C259.86 41.7076 253.267 34.5789 245.282 34.5417L203.317 34.3466C193.293 34.2999 184.587 43.0276 182.832 55.1279L156.366 229.324L216.503 231.274Z" fill="#E1E6FC"/>
<path d="M110.29 565.014C110.29 565.014 109.871 582.131 112.24 584.021C113.255 585.07 114.441 585.702 115.629 586.125L126.992 663.63C126.992 663.63 161.105 671.513 178.306 662.825L190.385 586.472L194.301 584.612L195.919 565.413C195.919 565.413 154.034 548.099 110.29 565.014Z" fill="#E1E6FC"/>
<path d="M114.102 585.7C114.102 585.7 159.954 590.297 165.4 588.444C170.845 586.59 169.387 571.344 169.387 571.344L191.997 568.526C191.997 568.526 191.921 584.809 190.384 586.681C188.673 589.178 187.3 592.095 186.436 595.222C186.431 596.266 176.771 664.07 176.771 664.07C176.771 664.07 161.976 666.924 159.598 666.913C157.219 666.902 166.146 610.576 166.164 606.819C166.181 603.061 166.217 595.337 163.838 595.326C161.46 595.315 116.599 596.776 116.288 590.512C115.957 588.631 115.285 586.958 114.102 585.7Z" fill="#BAC4F6"/>
<path d="M132.36 568.666C132.36 568.666 119.669 557.543 112.878 556.467C106.087 555.392 98.2766 554.312 91.4864 553.027C84.6963 551.743 76.0489 547.945 76.2421 542.936C76.4353 537.926 77.2954 535.634 81.2158 532.938C84.6264 530.24 88.3719 528.587 92.4524 527.98C95.5126 527.577 126.049 537.531 138.683 560.971L143.744 568.719L132.36 568.666Z" fill="#BAC4F6"/>
<path d="M88.1426 541.321C88.1426 541.321 99.8666 541.167 106.311 543.702C111.397 546.022 116.142 548.758 120.884 552.12L140.006 568.702" fill="#BAC4F6"/>
<path d="M88.1426 541.321C88.1426 541.321 99.8666 541.167 106.311 543.702C111.397 546.022 116.142 548.758 120.884 552.12L140.006 568.702" stroke="white" stroke-width="0.369131" stroke-miterlimit="10" stroke-linecap="round"/>
<path d="M145.785 568.102C145.785 568.102 130.95 543.19 125.205 536.274C119.46 529.358 112.702 521.185 107.13 513.852C101.557 506.519 94.6396 496.049 97.5483 491.678C100.457 487.308 102.679 484.395 108.111 485.465C112.356 486.111 116.426 487.8 119.809 490.947C122.857 493.257 149.723 525.115 153.462 561.458L157.335 568.782L145.785 568.102Z" fill="#BAC4F6"/>
<path d="M111.102 500.092C111.102 500.092 122.615 508.705 127.164 516.868C131.376 524.612 138.109 538.213 138.109 538.213L145.803 564.345" stroke="white" stroke-width="0.369131" stroke-miterlimit="10" stroke-linecap="round"/>
<path d="M153.255 569.39C153.255 569.39 136.141 522.964 132.956 513.763C129.77 504.563 116.582 490.723 113.737 481.315C110.893 471.908 109.055 465.219 112.137 460.014C115.22 454.809 123.225 450.671 128.307 453.826C133.051 456.771 139.296 465.568 141.994 469.965C144.186 473.524 157.996 536.427 156.739 551.034L159.371 569.627L153.255 569.39Z" fill="#E9EDFC"/>
<path d="M123.13 470.921C123.13 470.921 133.081 486.833 136.096 496.033C139.446 506.487 142.751 526.335 142.256 523.201L152.42 566.254" stroke="white" stroke-width="0.369131" stroke-miterlimit="10" stroke-linecap="round"/>
<path d="M143.742 569.137C143.742 569.137 128.551 547.563 121.094 543.353C113.638 539.143 105.165 534.511 97.8803 529.884C90.596 525.257 81.966 517.702 83.3466 513.115C84.7272 508.529 86.4349 506.658 91.7057 505.847C96.2978 504.825 101.054 505.056 105.636 506.33C109.029 507.389 140.859 531.337 148.883 559.557L152.575 569.386L143.742 569.137Z" fill="#E9EDFC"/>
<path d="M97.4302 517.147C97.4302 517.147 110.657 522.637 117.258 528.095C122.164 532.711 126.899 537.535 131.461 542.984L145.95 569.356" stroke="white" stroke-width="0.369131" stroke-miterlimit="10" stroke-linecap="round"/>
<path d="M183.666 569.74C183.666 569.74 197.647 559.367 204.957 558.357C212.268 557.347 220.767 556.551 228.248 555.334C235.729 554.116 244.921 550.61 244.772 546.016C244.623 541.422 243.785 539.122 239.38 536.388C235.654 533.865 231.584 532.176 227.339 531.53C224.113 531.098 190.939 540.338 176.903 562.61L171.263 569.891L183.666 569.74Z" fill="#BAC4F6"/>
<path d="M231.699 543.867C231.699 543.867 218.958 543.599 211.98 546.072C206.534 548.135 201.254 550.824 196.143 553.932L177.553 569.085" fill="#BAC4F6"/>
<path d="M231.699 543.867C231.699 543.867 218.958 543.599 211.98 546.072C206.534 548.135 201.254 550.824 196.143 553.932L177.553 569.085" stroke="white" stroke-width="0.369131" stroke-miterlimit="10" stroke-linecap="round"/>
<path d="M169.058 569.046C169.058 569.046 185.309 545.322 191.626 538.671C197.944 532.02 205.285 524.329 211.434 517.469C217.582 510.608 225.274 500.623 222.066 496.433C218.857 492.243 216.661 489.518 210.711 490.326C206.121 490.722 201.865 492.581 197.944 495.486C194.705 497.767 165.341 527.901 160.933 562.536L156.652 569.614L169.058 569.046Z" fill="#BAC4F6"/>
<path d="M207.247 504.506C207.247 504.506 194.636 512.589 189.673 520.29C185.052 527.576 177.515 540.693 177.515 540.693L169.074 565.497" stroke="white" stroke-width="0.369131" stroke-miterlimit="10" stroke-linecap="round"/>
<path d="M161.066 570.261C161.066 570.261 180.131 526.091 183.57 517.339C187.009 508.587 201.511 495.502 204.781 486.54C208.051 477.579 210.12 471.117 206.744 466.299C203.369 461.482 194.723 457.266 189.273 460.164C183.993 462.853 177.328 471.173 174.25 475.543C171.856 478.872 156.285 538.924 157.409 552.916L154.438 570.648L161.066 570.261Z" fill="#E9EDFC"/>
<path d="M159.2 569.626C159.2 569.626 160.931 526.42 164.564 512.449C166.986 503.066 169.437 487.42 172.706 478.667C175.975 469.914 171.102 458.2 167.897 453.175C164.693 448.15 156.023 449.153 150.403 452.05C145.123 454.739 142.193 463.703 141.491 468.501C140.961 472.883 153.122 524.922 151.673 544.122L152.572 570.013L159.2 569.626Z" fill="#BAC4F6"/>
<path d="M194.634 476.472C194.634 476.472 183.86 491.454 180.421 500.414C176.636 510.418 172.98 529.398 173.504 526.269L161.075 568.382" stroke="white" stroke-width="0.369131" stroke-miterlimit="10" stroke-linecap="round"/>
<path d="M171.432 569.892C171.432 569.892 188.178 549.511 196.181 545.581C204.185 541.652 213.55 537.311 221.386 532.964C229.221 528.616 238.769 521.562 237.26 517.171C235.751 512.78 234.06 511.102 228.288 510.24C223.364 509.382 218.267 509.359 213.334 510.588C209.592 511.615 174.997 534.001 166.037 560.89L161.917 570.056L171.432 569.892Z" fill="#E9EDFC"/>
<path d="M221.782 520.857C221.782 520.857 207.487 525.801 200.327 530.987C194.871 535.137 189.752 539.915 184.801 544.902L168.558 566.956" stroke="white" stroke-width="0.369131" stroke-miterlimit="10" stroke-linecap="round"/>
<path d="M156.308 461.054C156.308 461.054 159.024 498.018 157.278 508.031C156.579 512.203 156.798 538.3 156.798 538.3L155.984 567.106" stroke="white" stroke-width="0.369131" stroke-miterlimit="10" stroke-linecap="round"/>
<path d="M158.11 219.729L284.162 223.238L286.659 234.314L156.535 229.534L158.11 219.729Z" fill="#BAC4F6"/>
<path d="M777.948 249.543L775.513 553.912L932.839 555.062C932.839 555.062 934.774 394.738 929.201 241.269L778.343 237.854L777.948 249.543Z" fill="#BAC4F6"/>
<path d="M629.613 288.31L624.299 554.044L758.69 554.669L759.076 288.912L629.613 288.31Z" fill="#BAC4F6"/>
<path d="M433.672 443.347L627.012 445.498L624.299 554.044L433.842 552.949L433.672 443.347Z" fill="#BAC4F6"/>
<path d="M418.414 290.041L417.698 553.71C417.698 553.71 418.81 570.207 431.719 571.102C444.627 571.997 952.966 574.57 952.966 574.57C952.966 574.57 957.635 557.056 955.769 556.421C953.903 555.786 433.84 553.367 433.84 553.367C433.84 553.367 434.054 543.974 434.081 538.128C434.112 531.448 434.931 282.185 434.931 282.185C429.82 285.293 424.201 287.981 418.414 290.041Z" fill="white"/>
<path d="M429.506 316.189L943.774 322.547L946.43 336.129L429.41 336.856L429.506 316.189Z" fill="white"/>
<path d="M575.555 111.651L573.497 554.225L587.083 555.541L589.201 100.232L575.555 111.651Z" fill="white"/>
<path d="M821.644 23.8613L818.832 555.366L831.411 554.172L835.867 34.3658L821.644 23.8613Z" fill="white"/>
<path d="M589.201 100.232L882.777 103.894L874.369 85.0662L606.098 83.6097L589.201 100.232Z" fill="white"/>
<path d="M638.235 187.725C654.75 187.801 668.214 171.414 668.309 151.122C668.403 130.83 655.092 114.317 638.577 114.241C622.063 114.164 608.598 130.552 608.504 150.844C608.41 171.136 621.721 187.648 638.235 187.725Z" fill="white"/>
<path d="M667.293 186.816C678.084 186.866 686.882 176.158 686.943 162.899C687.005 149.64 678.307 138.851 667.516 138.801C656.726 138.751 647.928 149.459 647.866 162.718C647.805 175.977 656.502 186.766 667.293 186.816Z" fill="white"/>
<path d="M864.552 223.224C881.348 223.302 895.042 206.635 895.138 185.997C895.234 165.359 881.695 148.565 864.899 148.487C848.103 148.409 834.409 165.076 834.314 185.714C834.218 206.352 847.756 223.145 864.552 223.224Z" fill="white"/>
<path d="M833.158 214.936C844.137 214.987 853.088 204.093 853.15 190.603C853.213 177.113 844.364 166.137 833.386 166.086C822.407 166.034 813.456 176.929 813.394 190.418C813.331 203.908 822.18 214.885 833.158 214.936Z" fill="white"/>
<path d="M245.526 391.641C245.017 391.641 244.677 392.058 244.677 392.685C244.677 395.816 245.186 403.54 250.453 403.54C256.57 403.54 568.849 403.331 587.708 403.331C588.388 403.331 589.407 401.87 590.087 400.826C590.936 399.574 592.295 397.486 592.975 393.102C593.145 392.058 592.635 391.223 591.786 391.014C591.616 391.014 591.616 391.014 591.446 391.014L245.526 391.641Z" fill="url(#paint0_linear_16_125)"/>
<path d="M267.953 403.54C267.953 403.54 267.444 411.891 273.051 411.891C278.487 411.891 552.878 411.264 569.359 411.056C569.869 411.056 570.548 410.847 571.058 410.429C572.077 409.386 573.776 407.298 574.286 403.123L267.953 403.54Z" fill="url(#paint1_linear_16_125)"/>
<path d="M518.898 410.847H522.126L555.427 662.198L552.708 662.407L518.898 410.847Z" fill="url(#paint2_linear_16_125)"/>
<path d="M339.482 411.473H335.744L294.968 662.616L298.196 662.825L339.482 411.473Z" fill="url(#paint3_linear_16_125)"/>
<path d="M363.268 411.473H359.53L318.754 644.454L321.812 644.662L363.268 411.473Z" fill="url(#paint4_linear_16_125)"/>
<path d="M492.053 410.429H495.621L534.359 643.201L531.3 643.41L492.053 410.429Z" fill="url(#paint5_linear_16_125)"/>
<path d="M341.69 396.86L428.34 392.476L441.253 318.156L353.244 319.2L340.161 396.651" fill="url(#paint6_linear_16_125)"/>
<path d="M391.811 366.589C394.72 366.589 397.078 363.505 397.078 359.7C397.078 355.895 394.72 352.811 391.811 352.811C388.903 352.811 386.544 355.895 386.544 359.7C386.544 363.505 388.903 366.589 391.811 366.589Z" fill="white"/>
<path d="M341.011 391.223H293.778C293.438 391.223 293.268 391.432 293.099 391.849L292.419 395.398C292.419 395.816 292.589 396.233 292.929 396.233C292.929 396.233 292.929 396.233 293.099 396.233L340.161 396.86C340.501 396.86 340.671 396.651 340.841 396.233L341.69 392.267C341.69 391.849 341.52 391.432 341.011 391.223Z" fill="url(#paint7_linear_16_125)"/>
<path d="M351.884 317.112L439.893 316.277C440.063 316.277 440.063 316.277 440.233 316.486L441.422 318.156L353.753 318.991C353.583 318.991 353.414 319.2 353.414 319.408L342.03 396.233C342.03 396.442 341.86 396.651 341.69 396.651H340.841C340.671 396.651 340.501 396.442 340.501 396.233L351.375 317.947C351.205 317.53 351.375 317.112 351.884 317.112Z" fill="url(#paint8_linear_16_125)"/>
<path d="M504.626 357.403C503.946 357.195 503.097 356.986 502.417 356.777C500.888 356.36 499.019 356.986 498 358.447C497.32 359.491 496.81 360.952 496.641 362.414C495.961 366.798 497.15 371.391 499.869 374.313C501.738 376.61 503.946 378.697 506.155 380.367C506.835 380.785 507.344 381.62 507.344 382.455C508.024 385.587 508.874 388.718 509.893 391.641C510.063 392.058 510.233 392.058 510.403 392.267C514.99 393.937 519.747 393.937 524.335 392.476C525.354 392.058 525.354 392.058 525.864 390.806C527.733 384.752 529.092 378.489 529.771 372.226C530.451 366.38 530.791 360.535 530.621 354.69C530.621 353.646 530.621 353.646 529.771 353.228C528.412 352.602 526.883 352.393 525.354 352.393C521.616 351.976 517.708 351.976 513.801 351.976C511.422 351.976 508.874 352.393 506.495 353.019C505.985 353.228 505.475 353.437 504.966 353.646C504.796 353.854 504.626 353.854 504.626 354.272C504.626 355.316 504.626 356.36 504.626 357.403ZM506.155 377.654C502.077 375.148 499.529 371.391 499.189 365.754C499.019 364.501 499.189 363.458 499.529 361.996C499.869 360.952 500.378 360.117 501.228 359.909C502.587 359.7 503.776 360.535 504.456 361.996V363.666C504.626 367.215 504.966 370.764 505.475 374.105C505.645 375.357 505.815 376.401 506.155 377.654Z" fill="url(#paint9_linear_16_125)"/>
<path d="M504.796 353.646C504.796 353.646 517.369 349.053 530.621 353.646C530.621 353.646 519.577 359.074 504.796 353.646Z" fill="#4A41BC"/>
<path d="M525.693 318.365C526.543 324.001 525.184 329.847 522.126 334.439C520.936 336.527 519.577 338.197 518.388 340.285C516.519 343.416 515.16 346.965 514.65 350.932C514.65 351.349 514.31 352.184 514.31 352.602C514.31 351.558 513.97 350.932 513.97 349.888C513.8 345.295 515.16 340.911 517.538 337.153C518.558 335.483 519.747 333.813 520.766 332.352C523.315 328.594 525.014 324.419 525.693 319.826" fill="url(#paint10_linear_16_125)"/>
<path d="M509.383 346.548C509.383 345.921 509.213 345.504 509.044 345.086C508.874 341.329 509.893 337.571 512.102 334.648C513.291 332.978 514.311 331.308 515.16 329.638C516.349 327.55 517.029 325.045 517.369 322.54C517.539 322.122 517.539 320.87 517.539 321.705L517.709 321.914C517.878 322.54 517.878 323.375 518.048 324.001C518.048 327.341 517.029 330.682 515.33 333.396L512.272 337.988C511.082 339.867 510.403 341.955 509.893 344.251C509.723 344.46 509.723 344.878 509.723 345.086C509.723 345.504 509.553 345.921 509.383 346.548Z" fill="url(#paint11_linear_16_125)"/>
<path d="M523.145 348.844C523.145 348.635 522.975 347.8 522.805 346.965C522.635 343.208 523.655 339.45 525.864 336.527C527.053 334.857 528.072 333.187 528.922 331.517C530.111 329.429 530.791 326.924 531.13 324.419C531.3 324.21 531.47 322.749 531.3 323.793V324.001C531.47 324.628 531.47 325.254 531.64 325.88C531.64 329.22 530.621 332.561 528.922 335.275L525.864 339.867C524.674 341.746 523.995 343.834 523.485 346.13C523.315 346.339 523.315 346.756 523.315 346.965C523.315 347.592 523.145 348.009 522.975 348.635L523.145 348.844Z" fill="url(#paint12_linear_16_125)"/>
</g>
<defs>
<linearGradient id="paint0_linear_16_125" x1="244.558" y1="397.311" x2="592.856" y2="397.311" gradientUnits="userSpaceOnUse">
<stop stop-color="#E5A4ED"/>
<stop offset="1" stop-color="#7A5BF5"/>
</linearGradient>
<linearGradient id="paint1_linear_16_125" x1="244.558" y1="397.311" x2="592.856" y2="397.311" gradientUnits="userSpaceOnUse">
<stop stop-color="#E5A4ED"/>
<stop offset="1" stop-color="#7A5BF5"/>
</linearGradient>
<linearGradient id="paint2_linear_16_125" x1="518.908" y1="536.645" x2="555.361" y2="536.645" gradientUnits="userSpaceOnUse">
<stop stop-color="#E5A4ED"/>
<stop offset="1" stop-color="#7A5BF5"/>
</linearGradient>
<linearGradient id="paint3_linear_16_125" x1="341.341" y1="537.197" x2="296.861" y2="537.197" gradientUnits="userSpaceOnUse">
<stop stop-color="#E5A4ED"/>
<stop offset="1" stop-color="#7A5BF5"/>
</linearGradient>
<linearGradient id="paint4_linear_16_125" x1="365.021" y1="528.032" x2="320.548" y2="528.032" gradientUnits="userSpaceOnUse">
<stop stop-color="#E5A4ED"/>
<stop offset="1" stop-color="#7A5BF5"/>
</linearGradient>
<linearGradient id="paint5_linear_16_125" x1="491.765" y1="526.964" x2="534.106" y2="526.964" gradientUnits="userSpaceOnUse">
<stop stop-color="#E5A4ED"/>
<stop offset="1" stop-color="#7A5BF5"/>
</linearGradient>
<linearGradient id="paint6_linear_16_125" x1="340.127" y1="357.507" x2="441.198" y2="357.507" gradientUnits="userSpaceOnUse">
<stop stop-color="#CD94EF"/>
<stop offset="1" stop-color="#7D5DF5"/>
</linearGradient>
<linearGradient id="paint7_linear_16_125" x1="292.409" y1="393.999" x2="341.584" y2="393.999" gradientUnits="userSpaceOnUse">
<stop stop-color="#7A5BF5"/>
<stop offset="1" stop-color="#8260F4"/>
</linearGradient>
<linearGradient id="paint8_linear_16_125" x1="340.155" y1="356.54" x2="441.226" y2="356.54" gradientUnits="userSpaceOnUse">
<stop stop-color="#7A5BF5"/>
<stop offset="0.71" stop-color="#8260F4"/>
</linearGradient>
<linearGradient id="paint9_linear_16_125" x1="536.065" y1="363.815" x2="477.922" y2="380.256" gradientUnits="userSpaceOnUse">
<stop stop-color="#59CFEE"/>
<stop offset="1" stop-color="#4A41BC"/>
</linearGradient>
<linearGradient id="paint10_linear_16_125" x1="519.006" y1="338.362" x2="512.002" y2="350.95" gradientUnits="userSpaceOnUse">
<stop stop-color="#59CFEE"/>
<stop offset="1" stop-color="#4A41BC"/>
</linearGradient>
<linearGradient id="paint11_linear_16_125" x1="513.034" y1="335.635" x2="508.586" y2="345.482" gradientUnits="userSpaceOnUse">
<stop stop-color="#59CFEE"/>
<stop offset="1" stop-color="#4A41BC"/>
</linearGradient>
<linearGradient id="paint12_linear_16_125" x1="526.6" y1="337.667" x2="522.098" y2="347.646" gradientUnits="userSpaceOnUse">
<stop stop-color="#59CFEE"/>
<stop offset="1" stop-color="#4A41BC"/>
</linearGradient>
<clipPath id="clip0_16_125">
<rect width="961" height="667" fill="white"/>
</clipPath>
</defs>
</svg>
