<svg width="271" height="225" viewBox="0 0 271 225" fill="none" xmlns="http://www.w3.org/2000/svg">
<g clip-path="url(#clip0_12_1722)">
<path d="M169.02 225H89.3284C78.9445 225 70.4966 217.186 70.4966 207.582V17.4183C70.4966 7.81375 78.9445 0 89.3284 0H169.02C179.404 0 187.852 7.81375 187.852 17.4183V207.582C187.852 217.186 179.404 225 169.02 225Z" fill="#2F2E41"/>
<path d="M169.102 220.299H89.2474C81.456 220.299 75.1172 214.436 75.1172 207.23V16.7022C75.1172 9.4957 81.456 3.63257 89.2474 3.63257H169.102C176.893 3.63257 183.232 9.4957 183.232 16.7022V207.23C183.232 214.436 176.893 220.299 169.102 220.299Z" fill="white"/>
<path d="M141.649 16.0256H116.238C113.308 16.0256 110.924 13.821 110.924 11.1111C110.924 8.4011 113.308 6.19653 116.238 6.19653H141.649C144.579 6.19653 146.963 8.4011 146.963 11.1111C146.963 13.821 144.579 16.0256 141.649 16.0256Z" fill="#2F2E41"/>
<path d="M161.107 69.35H94.5014C91.9458 69.35 89.8667 67.4267 89.8667 65.063V40.5784C89.8667 38.2147 91.9458 36.2917 94.5014 36.2917H161.107C163.662 36.2917 165.741 38.2147 165.741 40.5784V65.063C165.741 67.4267 163.662 69.35 161.107 69.35Z" fill="#6C63FF"/>
<path d="M161.107 144.331H94.5014C91.9458 144.331 89.8667 142.408 89.8667 140.044V115.56C89.8667 113.196 91.9458 111.273 94.5014 111.273H161.107C163.662 111.273 165.741 113.196 165.741 115.56V140.044C165.741 142.408 163.662 144.331 161.107 144.331Z" fill="#D8D8D8"/>
<path d="M160.711 106.403H134.526C131.837 106.403 129.648 104.379 129.648 101.892V78.4109C129.648 75.9231 131.837 73.8992 134.526 73.8992H160.711C163.401 73.8992 165.589 75.9231 165.589 78.4109V101.892C165.589 104.379 163.401 106.403 160.711 106.403Z" fill="#D8D8D8"/>
<path d="M120.777 106.403H94.5922C91.9025 106.403 89.7144 104.379 89.7144 101.892V78.4109C89.7144 75.9231 91.9025 73.8992 94.5922 73.8992H120.777C123.467 73.8992 125.655 75.9231 125.655 78.4109V101.892C125.655 104.379 123.467 106.403 120.777 106.403Z" fill="#D8D8D8"/>
<path d="M199.331 55.0191L197.65 58.9086C197.65 58.9086 196.1 64.353 197.917 66.5249C199.73 68.6931 200.134 85.3182 198.185 86.5445C196.236 87.7745 222.884 75.1607 222.884 75.1607C222.884 75.1607 212.481 52.8473 212.306 52.766C212.13 52.6848 205.313 50.7197 205.313 50.7197L199.339 55.0191H199.331Z" fill="#2F2E43"/>
<path d="M216.682 74.2446L207.753 76.9594V65.0732H215.856L216.682 74.2446Z" fill="#F2A2A5"/>
<path d="M188.193 141.731C187.71 144.454 185.746 146.408 183.809 146.094C181.872 145.78 180.69 143.316 181.177 140.59C181.353 139.5 181.82 138.466 182.539 137.583L184.751 126.07L190.773 127.238L187.95 138.463C188.321 139.526 188.405 140.645 188.193 141.731Z" fill="#F2A2A5"/>
<path d="M213.328 207.323H204.966V218.297H213.328V207.323Z" fill="#F2A2A5"/>
<path d="M196.819 224.942C195.941 224.942 195.158 224.924 194.567 224.872C192.347 224.684 190.226 223.166 189.16 222.279C188.681 221.88 188.529 221.245 188.777 220.698C188.956 220.307 189.312 220.011 189.755 219.897L195.625 218.345L205.13 212.413L205.237 212.591C205.277 212.657 206.212 214.212 206.523 215.261C206.643 215.66 206.611 215.992 206.431 216.251C206.308 216.428 206.132 216.532 205.992 216.591C206.164 216.757 206.703 217.097 208.364 217.341C210.788 217.695 211.299 215.372 211.319 215.276L211.335 215.198L211.407 215.154C212.561 214.467 213.272 214.153 213.516 214.219C213.667 214.26 213.923 214.334 214.614 220.661C214.682 220.861 215.165 222.316 214.837 223.709C214.482 225.223 207.326 224.702 205.892 224.584C205.852 224.588 200.493 224.942 196.823 224.942L196.819 224.942Z" fill="#2F2E43"/>
<path d="M237.139 198.703L230.044 202.796L236.322 212.107L243.418 208.014L237.139 198.703Z" fill="#F2A2A5"/>
<path d="M227.716 223.435C226.734 223.435 225.831 223.324 225.188 223.221C224.557 223.118 224.062 222.652 223.958 222.069C223.886 221.647 224.018 221.223 224.33 220.909L228.423 216.72L233.095 207.035L233.287 207.131C233.359 207.168 235.04 208.029 235.906 208.768C236.238 209.048 236.402 209.348 236.394 209.654C236.39 209.868 236.302 210.038 236.214 210.16C236.453 210.219 237.104 210.241 238.654 209.636C240.914 208.753 240.02 206.529 239.98 206.437L239.948 206.363L239.984 206.293C240.571 205.144 240.99 204.531 241.238 204.468C241.393 204.428 241.649 204.365 245.854 209.399C246.026 209.532 247.268 210.533 247.787 211.874C248.35 213.333 241.98 216.395 240.698 216.993C240.659 217.023 233.994 221.503 231.254 222.778C230.168 223.284 228.882 223.439 227.712 223.439L227.716 223.435Z" fill="#2F2E43"/>
<path d="M219.486 115.554H196.072L193.948 135.7L203.244 210.134H215.197L210.417 167.144L229.804 205.957L240.427 199.079L225.288 162.844C225.288 162.844 230.695 131.278 226.446 123.415C222.197 115.554 219.486 115.554 219.486 115.554Z" fill="#2F2E43"/>
<path d="M231.13 116.784H190.494L205.102 72.3201H221.303L231.13 116.784Z" fill="#D6D6D7"/>
<path d="M207.657 72.3275C207.657 72.3275 197.566 72.08 196.504 74.54C195.441 76.9963 182.958 135.463 182.958 135.463H191.192L207.661 72.3275L207.657 72.3275Z" fill="#D6D6D7"/>
<path d="M208.859 68.3642C213.773 68.3642 217.757 64.6798 217.757 60.1347C217.757 55.5897 213.773 51.9053 208.859 51.9053C203.945 51.9053 199.962 55.5897 199.962 60.1347C199.962 64.6798 203.945 68.3642 208.859 68.3642Z" fill="#F2A2A5"/>
<path d="M210.584 47.3474C210.584 47.3474 221.295 44.8099 224.573 57.9926C224.573 57.9926 224.661 61.4314 226.522 62.8239C228.383 64.2164 227.76 71.4227 227.76 71.4227C227.76 71.4227 231.302 76.8265 228.291 79.2828C228.291 79.2828 226.961 84.2766 228.91 87.1429C230.859 90.0092 238.207 105.774 225.987 106.734C225.987 106.734 219.789 103.273 222.712 92.9567C225.635 82.6404 222.357 76.941 222.357 76.941C222.357 76.941 212.972 73.794 213.503 67.079C214.035 60.3639 207.481 53.7301 207.042 53.815C206.603 53.9 201.994 51.44 199.958 58.9751L197.777 58.6316C197.777 58.6316 196.859 45.9549 210.584 47.3474Z" fill="#2F2E43"/>
<path d="M238.067 140.409C238.662 143.113 237.572 145.584 235.639 145.927C233.706 146.271 231.657 144.354 231.066 141.65C230.815 140.572 230.855 139.456 231.182 138.392L228.83 126.901L234.908 126.011L236.581 137.432C237.336 138.304 237.843 139.323 238.067 140.409Z" fill="#F2A2A5"/>
<path d="M214.227 72.3793C214.227 72.3793 223.116 71.3377 224.178 73.7939C225.24 76.2502 237.724 134.717 237.724 134.717H229.489L214.227 72.3793Z" fill="#D6D6D7"/>
<path d="M271 224.416C271 224.722 270.732 224.97 270.401 224.97H0.59901C0.267558 224.97 0 224.722 0 224.416C0 224.109 0.267558 223.862 0.59901 223.862H270.401C270.732 223.862 271 224.109 271 224.416Z" fill="#2F2E43"/>
</g>
<defs>
<clipPath id="clip0_12_1722">
<rect width="271" height="225" fill="white"/>
</clipPath>
</defs>
</svg>
